<svg xmlns="http://www.w3.org/2000/svg" viewBox="0 0 786 794"><defs><style>.cls-1{fill:#002264;}.cls-2{fill:#fff;}</style></defs><title>read</title><g id="Layer_2" data-name="Layer 2"><g id="Messenger_-_Inactive" data-name="Messenger - Inactive"><g id="Bubble_Shape" data-name="Bubble Shape"><path class="cls-1" d="M162,645.39l-6.35-4.8C66.9,573.45,16,473.91,16,367.5c0-93.68,39.08-181.82,110-248.17A378.31,378.31,0,0,1,245.91,43.76a403.59,403.59,0,0,1,294.18,0A378.31,378.31,0,0,1,660,119.32c71,66.35,110,154.49,110,248.17S730.93,549.32,660,615.67a378.32,378.32,0,0,1-119.88,75.57A398.15,398.15,0,0,1,393,719a402.74,402.74,0,0,1-108.57-14.8l-6.33-1.77L162,766.83Z"/><path class="cls-2" d="M393,32a382.21,382.21,0,0,1,141.2,26.64A362.39,362.39,0,0,1,649,131,334.12,334.12,0,0,1,726,237.64a314.72,314.72,0,0,1,0,259.72A334.13,334.13,0,0,1,649,604a362.4,362.4,0,0,1-114.83,72.37A382.21,382.21,0,0,1,393,703a386.7,386.7,0,0,1-104.26-14.2l-12.66-3.54-11.49,6.37-86.6,48V637.43l-12.69-9.6C124.5,597,90.85,557.48,68,513.65a314.81,314.81,0,0,1-7.93-276A334.12,334.12,0,0,1,137,131,362.39,362.39,0,0,1,251.8,58.64,382.21,382.21,0,0,1,393,32m0-32C176,0,0,164.53,0,367.5,0,483,56.94,586,146,653.35V794L280.12,719.6A418.37,418.37,0,0,0,393,735c217,0,393-164.53,393-367.5S610.05,0,393,0Z"/><polygon class="cls-2" points="434.39 492.81 332.75 387.21 137 495.46 351.61 267.72 453.26 373.32 649 265.06 434.39 492.81"/></g></g></g></svg>